<svg xmlns="http://www.w3.org/2000/svg" viewBox="0 0 64 64" fill="none">
  <circle cx="32" cy="16" r="5" fill="#FF6F00" opacity="0.8"/>
  <circle cx="16" cy="32" r="5" fill="#FF6F00" opacity="0.8"/>
  <circle cx="48" cy="32" r="5" fill="#FF6F00" opacity="0.8"/>
  <circle cx="20" cy="50" r="5" fill="#FF6F00" opacity="0.8"/>
  <circle cx="44" cy="50" r="5" fill="#FF6F00" opacity="0.8"/>
  <line x1="32" y1="16" x2="16" y2="32" stroke="#FF6F00" stroke-width="2" opacity="0.4"/>
  <line x1="32" y1="16" x2="48" y2="32" stroke="#FF6F00" stroke-width="2" opacity="0.4"/>
  <line x1="16" y1="32" x2="48" y2="32" stroke="#FF6F00" stroke-width="2" opacity="0.4"/>
  <line x1="16" y1="32" x2="20" y2="50" stroke="#FF6F00" stroke-width="2" opacity="0.4"/>
  <line x1="16" y1="32" x2="44" y2="50" stroke="#FF6F00" stroke-width="2" opacity="0.4"/>
  <line x1="48" y1="32" x2="20" y2="50" stroke="#FF6F00" stroke-width="2" opacity="0.4"/>
  <line x1="48" y1="32" x2="44" y2="50" stroke="#FF6F00" stroke-width="2" opacity="0.4"/>
  <line x1="20" y1="50" x2="44" y2="50" stroke="#FF6F00" stroke-width="2" opacity="0.4"/>
  <circle cx="32" cy="16" r="3" fill="#FF6F00"/>
  <circle cx="16" cy="32" r="3" fill="#FF6F00"/>
  <circle cx="48" cy="32" r="3" fill="#FF6F00"/>
  <circle cx="20" cy="50" r="3" fill="#FF6F00"/>
  <circle cx="44" cy="50" r="3" fill="#FF6F00"/>
</svg>
