<svg xmlns="http://www.w3.org/2000/svg" viewBox="0 0 64 64" fill="none">
  <path d="M32 4C16.5 4 4 16.5 4 32s12.5 28 28 28 28-12.5 28-28S47.5 4 32 4Z" fill="#512BD4"/>
  <path d="M43.8 25.3l-2.3 4c-1.4-2.5-4-4.2-7.1-4.2-4.6 0-8.3 3.7-8.3 8.3s3.7 8.3 8.3 8.3c3.1 0 5.7-1.7 7.1-4.2l2.3 4c-2.3 3.4-6.2 5.6-10.5 5.6-7.1 0-12.8-5.8-12.8-12.8S26.2 21.4 33.3 21.4c4.3 0 8.2 2.2 10.5 5.6v-1.7Z" fill="#fff"/>
  <path d="M44.5 28h2.5v2h-2.5v2.5h-2V30H40v-2h2.5v-2.5h2V28Z" fill="#fff"/>
  <path d="M51 28h2.5v2H51v2.5h-2V30h-2.5v-2H49v-2.5h2V28Z" fill="#fff"/>
</svg>
