<svg xmlns="http://www.w3.org/2000/svg" viewBox="0 0 64 64" fill="none">
  <path d="M32 4L8 16v16c0 14.4 10.24 27.84 24 32 13.76-4.16 24-17.6 24-32V16L32 4Z" fill="#00B4D8" opacity="0.15"/>
  <path d="M32 4L8 16v16c0 14.4 10.24 27.84 24 32 13.76-4.16 24-17.6 24-32V16L32 4Z" stroke="#00B4D8" stroke-width="2.5" fill="none"/>
  <rect x="25" y="28" width="14" height="14" rx="3" stroke="#00B4D8" stroke-width="2.5" fill="none"/>
  <path d="M22 28v-4a10 10 0 0 1 20 0v4" stroke="#00B4D8" stroke-width="2.5" fill="none" stroke-linecap="round"/>
  <circle cx="32" cy="35" r="2.5" fill="#00B4D8"/>
  <line x1="32" y1="37" x2="32" y2="40" stroke="#00B4D8" stroke-width="2" stroke-linecap="round"/>
</svg>
