<svg xmlns="http://www.w3.org/2000/svg" viewBox="0 0 64 64" fill="none">
  <path d="M15.2 48.8L8 18.4 18.4 8l30.4 7.2L15.2 48.8Z" fill="#01579B"/>
  <path d="M42.4 52.8L48.8 15.2 56 21.6l-7.2 37.6-6.4-6.4Z" fill="#01579B"/>
  <path d="M48.8 15.2L18.4 8 8 18.4l7.2 30.4 33.6-33.6Z" fill="#0175C2"/>
  <path d="M15.2 48.8l33.6-33.6L56 21.6l-7.2 37.6-33.6-10.4Z" fill="#02569B"/>
  <path d="M42.4 52.8l6.4-37.6 7.2 6.4-7.2 37.6-6.4-6.4Z" fill="#0175C2"/>
  <path d="M48.8 59.2L56 21.6l-7.2-6.4-33.6 33.6L48.8 59.2Z" fill="#13B9FD"/>
</svg>
