<svg xmlns="http://www.w3.org/2000/svg" viewBox="0 0 64 64" fill="none">
  <path d="M8 34c0 .3.2.3.5.2l4.2-1.7c.2-.1.3-.3.1-.5l-1-1.5c-.1-.2-.3-.2-.5-.1L7 32.6c-.3.1-.2.4 0 .5l1 .9Z" fill="#00ADD8"/>
  <path d="M3 31.5c-.2.1-.2.4 0 .5l1.8 1.2c.2.2.5.1.6-.1l.5-1c.1-.2.1-.4-.1-.5L2.5 29c-.2-.1-.4.1-.3.3L3 31.5Z" fill="#00ADD8"/>
  <path d="M18 28c.3-.6.2-1.3-.2-1.8L14 22c-.5-.6-1.4-.7-2-.2-3.4 3-5.5 7.3-5.5 12.1 0 4.8 2.1 9.1 5.5 12.1.6.5 1.5.4 2-.2l3.8-4.2c.4-.5.5-1.2.2-1.8-1.2-2.3-1.5-3.7-1.5-5.9 0-2.2.3-3.6 1.5-5.9Z" fill="#00ADD8"/>
  <path d="M32 18c-8.6 0-15.7 6.3-17 14.5-.1.5.3 1 .8 1h4.4c.4 0 .7-.3.8-.6C22.2 27.6 26.7 24 32 24s9.8 3.6 11 8.9c.1.3.4.6.8.6h4.4c.5 0 .9-.5.8-1C47.7 24.3 40.6 18 32 18Z" fill="#00ADD8"/>
  <path d="M32 46c-5.3 0-9.8-3.6-11-8.9-.1-.3-.4-.6-.8-.6h-4.4c-.5 0-.9.5-.8 1C16.3 45.7 23.4 52 32 52s15.7-6.3 17-14.5c.1-.5-.3-1-.8-1h-4.4c-.4 0-.7.3-.8.6C41.8 42.4 37.3 46 32 46Z" fill="#00ADD8"/>
  <path d="M46 28c-.3-.6-.2-1.3.2-1.8L50 22c.5-.6 1.4-.7 2-.2 3.4 3 5.5 7.3 5.5 12.1 0 4.8-2.1 9.1-5.5 12.1-.6.5-1.5.4-2-.2l-3.8-4.2c-.4-.5-.5-1.2-.2-1.8 1.2-2.3 1.5-3.7 1.5-5.9 0-2.2-.3-3.6-1.5-5.9Z" fill="#00ADD8"/>
</svg>
