<svg xmlns="http://www.w3.org/2000/svg" viewBox="0 0 64 64" fill="none">
  <path d="M24.2 43s-2 1.2 1.4 1.6c4.2.5 6.3.4 10.8-.4 0 0 1.2.8 2.9 1.4C30.1 49.5 18.5 45.6 24.2 43Zm-1.2-5.3s-2.2 1.7 1.2 2c4.4.5 8 .5 14.1-.7 0 0 .8.9 2.1 1.3C29.5 44.2 17.2 40.7 23 37.7Z" fill="#ED8B00"/>
  <path d="M34 28.5c2.5 2.8-.6 5.4-.6 5.4s6.3-3.2 3.4-7.3c-2.7-3.8-4.8-5.7 6.5-12.2 0 0-17.7 4.4-9.3 14.1Z" fill="#ED8B00"/>
  <path d="M47.6 47.2s1.5 1.2-1.6 2.2c-5.9 1.8-24.5 2.3-29.6.1-1.8-.8 1.6-1.9 2.7-2.2 1.1-.2 1.8-.2 1.8-.2-2-.1.4-3.2-13.2-4.3C-1 47.7 20.3 54.5 48 47.2h-.4Zm-22-16s-9.4 2.2-3.3 3.1c2.6.3 7.7.3 12.5-.2 3.9-.3 7.9-1.1 7.9-1.1s-1.4.6-2.4 1.3c-9.6 2.5-28.1 1.3-22.8-1.2 4.5-2.1 8.1-1.9 8.1-1.9Zm17 9.5c9.7-5 5.2-9.9 2.1-9.2-.8.2-1.1.3-1.1.3s.3-.5.8-.7c6.2-2.2 10.9 6.4-2 9.8 0 0 .1-.1.2-.2Z" fill="#ED8B00"/>
  <path d="M36.4 4s5.4 5.4-5.1 13.7c-8.4 6.6-1.9 10.4 0 14.7-4.9-4.4-8.5-8.3-6.1-11.9 3.6-5.3 13.4-7.8 11.2-16.5Z" fill="#ED8B00"/>
  <path d="M25.2 58.5c9.3.6 23.7-.3 24-4.8 0 0-.7 1.7-7.8 3-8 1.5-17.9 1.3-23.8.4 0 0 1.2 1 7.6 1.4Z" fill="#ED8B00"/>
</svg>
