<svg xmlns="http://www.w3.org/2000/svg" viewBox="0 0 64 64" fill="none">
  <rect width="64" height="64" rx="4" fill="#F7DF1E"/>
  <path d="M17 47.4l4.4-2.7c.8 1.5 1.6 2.7 3.4 2.7 1.7 0 2.8-.7 2.8-3.3V26.8h5.4v17.4c0 5.4-3.2 7.9-7.8 7.9-4.2 0-6.6-2.2-7.8-4.7h-.4Z" fill="#323330"/>
  <path d="M36.4 46.8l4.4-2.6c1.1 1.8 2.6 3.2 5.2 3.2 2.2 0 3.6-1.1 3.6-2.6 0-1.8-1.4-2.4-3.9-3.5l-1.3-.6c-3.8-1.6-6.4-3.7-6.4-8 0-4 3-7 7.8-7 3.4 0 5.8 1.2 7.6 4.2l-4.2 2.7c-.9-1.6-1.9-2.3-3.4-2.3-1.6 0-2.6 1-2.6 2.3 0 1.6 1 2.2 3.3 3.2l1.3.6c4.5 1.9 7 3.9 7 8.3 0 4.8-3.7 7.4-8.7 7.4-4.9 0-8-2.3-9.6-5.3h.9Z" fill="#323330"/>
</svg>
