<svg xmlns="http://www.w3.org/2000/svg" viewBox="0 0 64 64" fill="none">
  <path d="M31.885 2c-16.27 0-15.244 7.058-15.244 7.058l.018 7.314h15.508v2.195H13.6S2 17.392 2 33.817s10.127 15.852 10.127 15.852h6.043v-7.63s-.326-10.127 9.962-10.127h17.137s9.645.156 9.645-9.323V10.06S56.474 2 31.885 2Zm-9.523 4.66a3.112 3.112 0 1 1 0 6.224 3.112 3.112 0 0 1 0-6.224Z" fill="#366C9C"/>
  <path d="M32.115 62c16.27 0 15.244-7.058 15.244-7.058l-.018-7.314H31.833v-2.195h18.566S62 46.608 62 30.183 51.874 14.33 51.874 14.33h-6.043v7.63s.326 10.128-9.962 10.128H18.732s-9.645-.156-9.645 9.323v12.529S7.526 62 32.115 62Zm9.523-4.66a3.112 3.112 0 1 1 0-6.224 3.112 3.112 0 0 1 0 6.224Z" fill="#FFC836"/>
</svg>
