<svg xmlns="http://www.w3.org/2000/svg" viewBox="0 0 64 64" fill="none">
  <path d="M32 4C16.5 4 4 16.5 4 32s12.5 28 28 28 28-12.5 28-28S47.5 4 32 4Z" fill="#CE422B"/>
  <path d="M32 12c-11 0-20 9-20 20s9 20 20 20 20-9 20-20-9-20-20-20Zm0 2.5a2 2 0 1 1 0 4 2 2 0 0 1 0-4Zm-11.5 8.8l1.8 1c-.2.5-.4 1-.5 1.5l-2 .3c-.4 2-.4 3.8 0 5.8l2 .3c.1.5.3 1 .5 1.5l-1.8 1c.8 1.8 2 3.4 3.4 4.7l1.4-1.5c.4.3.8.6 1.3.8l-.1 2.1c1.9.8 3.8 1.2 5.8 1.2h.6v-2.1c.5-.1 1-.2 1.5-.3l1.1 1.7c1.6-.6 3.2-1.6 4.5-2.8h-7.2c-1 0-1.5-.2-1.5-1.3v-5.2h3.3c.6 0 1.2.2 1.4 1.2v.1c.3 1.3.3 3.1.5 3.6.2.6 1 1.6 1.8 1.6h2.7c-.5.4-1.1.8-1.7 1.1l1.4 1.5c1.5-1.3 2.6-2.9 3.4-4.7l-1.8-1c.2-.5.4-1 .5-1.5l2-.3c.4-2 .4-3.8 0-5.8l-2-.3c-.1-.5-.3-1-.5-1.5l1.8-1c-.8-1.8-2-3.4-3.4-4.7l-1.4 1.5c-.4-.3-.8-.6-1.3-.8l.1-2.1c-1.9-.8-3.8-1.2-5.8-1.2h-.6v2.1c-.5.1-1 .2-1.5.3l-1.1-1.7c-2 .7-3.7 1.8-5 3.2h5.4c.2 0 .3.1.3.3v2.3H27c-.2 0-.3.1-.3.3v2.8s0 1.4 1.5 1.4h2.2c-.2.7-.5 2.6-.7 3.2-.3.6-1.5 3-2.8 4.4l.1-.1c-.5-.2-1-.5-1.3-.8L24.3 40c-1.5-1.3-2.6-2.9-3.4-4.7l1.8-1c-.2-.5-.4-1-.5-1.5l-2-.3c-.2-1-.3-1.9-.3-2.9 0-1 .1-1.9.3-2.9l2-.3c.1-.5.3-1 .5-1.5l-1.8-1c.5-1 1.2-2 2-2.8Z" fill="#fff"/>
</svg>
