<svg xmlns="http://www.w3.org/2000/svg" viewBox="0 0 64 64" fill="none">
  <path d="M32 6C18.745 6 8 9.582 8 14v36c0 4.418 10.745 8 24 8s24-3.582 24-8V14c0-4.418-10.745-8-24-8Z" fill="#336791" opacity="0.15"/>
  <ellipse cx="32" cy="14" rx="24" ry="8" fill="#336791" opacity="0.3"/>
  <ellipse cx="32" cy="14" rx="24" ry="8" stroke="#336791" stroke-width="2.5" fill="none"/>
  <path d="M8 14v36c0 4.418 10.745 8 24 8s24-3.582 24-8V14" stroke="#336791" stroke-width="2.5" fill="none"/>
  <path d="M8 28c0 4.418 10.745 8 24 8s24-3.582 24-8" stroke="#336791" stroke-width="2" opacity="0.5" fill="none"/>
  <path d="M8 42c0 4.418 10.745 8 24 8s24-3.582 24-8" stroke="#336791" stroke-width="2" opacity="0.5" fill="none"/>
</svg>
