<svg xmlns="http://www.w3.org/2000/svg" viewBox="0 0 64 64" fill="none">
  <rect width="64" height="64" rx="14" fill="#F05138"/>
  <path d="M42.5 46.4c-.9.5-5.3 2.8-11 .3-6.8-3-13.4-10.5-13.4-10.5s8.2 6.4 14.2 7.8c-4.2-2.8-12.5-10.8-12.5-10.8s7.8 6.8 11.5 8.2c-2.1-1.5-8.8-8.9-8.8-8.9 4.5 4.2 9.1 7.4 9.1 7.4-3.5-4.7-7.2-11.8-7.2-11.8 3.5 5.2 13.2 14.2 16.5 16 4.2 2.2 8.2-.3 9.5-3.8 1.8-4.5 1.1-10.8-2.4-16.8C43.4 15.4 33.2 10.2 25 12c0 0 6.1.5 12.5 5.2-1.8-1.2-9.6-5-17.2-2.1 0 0 3.8.1 8 2.2-3.8-.3-7.9 1.5-7.9 1.5 3.3-.3 6.2.2 9 1.5C20.8 23 14 30.8 13.2 32c5.6-4.2 9-5.8 9-5.8-2.8 3.2-4.4 5.5-6 8.2 2.5-2 7.8-5.6 7.8-5.6-2.8 3.8-4.2 6.2-5.3 8.2 3-2.5 8-5.7 8-5.7l-2.8 5.2s8.7 5.9 16.5 8.8c1.8.6 2.8 1.5 2.1 1.1Z" fill="#fff"/>
</svg>
