<svg xmlns="http://www.w3.org/2000/svg" viewBox="0 0 64 64" fill="none">
  <rect width="64" height="64" rx="6" fill="#3178C6"/>
  <path d="M36.2 33.8v-3.4h-16v3.4h5.5V52h5v-18.2h5.5Z" fill="#fff"/>
  <path d="M40.4 52v-18.5c1.5-.7 3.6-1.1 5.8-1.1 2.4 0 4.2.5 5.5 1.5 1.3 1 2 2.5 2 4.3 0 1.3-.4 2.4-1.1 3.3-.7.9-1.8 1.5-3.1 1.8v.1c1.4.2 2.5.8 3.3 1.7.8.9 1.2 2.1 1.2 3.5 0 2.1-.7 3.7-2.2 4.9-1.5 1.2-3.5 1.7-6 1.7-2.3 0-4-.3-5.4-.9Zm5-11h1.5c1 0 1.8-.3 2.4-.8.6-.5.9-1.2.9-2 0-.8-.3-1.4-.8-1.8-.5-.4-1.3-.6-2.3-.6-.7 0-1.3.1-1.7.2v5Zm0 8.5c.5.1 1.1.2 1.8.2 1.1 0 2-.3 2.6-.8.6-.5 1-1.3 1-2.2 0-.9-.3-1.6-1-2.1-.7-.5-1.6-.8-2.8-.8h-1.6v5.7Z" fill="#fff"/>
</svg>
